<svg width="136" height="136" viewBox="0 0 136 136" fill="none" xmlns="http://www.w3.org/2000/svg" xmlns:xlink="http://www.w3.org/1999/xlink">
<path d="M123.565,56.902L119,56.902L119,56.667L68,56.667L68,79.333L100.025,79.333C95.353,92.528 82.799,102 68,102C49.224,102 34,86.777 34,68C34,49.224 49.224,34 68,34C76.667,34 84.552,37.27 90.556,42.611L106.584,26.582C96.464,17.15 82.926,11.333 68,11.333C36.706,11.333 11.333,36.706 11.333,68C11.333,99.294 36.706,124.667 68,124.667C99.294,124.667 124.667,99.294 124.667,68C124.667,64.201 124.276,60.492 123.565,56.902Z" fill="#FFC107"/>
<path d="M17.867,41.625L36.485,55.278C41.522,42.806 53.723,34 68,34C76.667,34 84.552,37.27 90.556,42.611L106.584,26.582C96.464,17.15 82.926,11.333 68,11.333C46.234,11.333 27.359,23.621 17.867,41.625Z" fill="#FF3D00"/>
<path d="M68,124.667C82.637,124.667 95.937,119.065 105.992,109.956L88.454,95.115C82.573,99.587 75.388,102.006 68,102C53.261,102 40.746,92.602 36.031,79.486L17.552,93.724C26.931,112.075 45.976,124.667 68,124.667Z" fill="#4CAF50"/>
<path d="M123.565,56.902L119,56.902L119,56.667L68,56.667L68,79.333L100.025,79.333C97.79,85.613 93.765,91.101 88.445,95.118L88.454,95.112L105.992,109.953C104.751,111.081 124.667,96.333 124.667,68C124.667,64.201 124.276,60.492 123.565,56.902Z" fill="#1976D2"/>
</svg>
