<svg width="128" height="128" viewBox="0 0 128 128" fill="none" xmlns="http://www.w3.org/2000/svg" xmlns:xlink="http://www.w3.org/1999/xlink">
<path d="M128,64C128,28.654 99.346,0 64,0C28.654,0 0,28.654 0,64C0,95.944 23.404,122.422 54,127.223L54,82.5L37.75,82.5L37.75,64L54,64L54,49.9C54,33.86 63.555,25 78.174,25C85.176,25 92.5,26.25 92.5,26.25L92.5,42L84.43,42C76.479,42 74,46.934 74,51.995L74,64L91.75,64L88.912,82.5L74,82.5L74,127.223C104.596,122.422 128,95.945 128,64Z" fill="#1877F2"/>
<path d="M88.912,82.5L91.75,64L74,64L74,51.995C74,46.933 76.479,42 84.43,42L92.5,42L92.5,26.25C92.5,26.25 85.176,25 78.174,25C63.555,25 54,33.86 54,49.9L54,64L37.75,64L37.75,82.5L54,82.5L54,127.223C57.308,127.741 60.652,128.001 64,128C67.348,128.001 70.692,127.741 74,127.223L74,82.5L88.912,82.5Z" fill="#FFFFFF"/>
</svg>
