<svg width="32" height="40" viewBox="0 0 32 40" fill="none" xmlns="http://www.w3.org/2000/svg" xmlns:xlink="http://www.w3.org/1999/xlink">
<path d="M26,14L26,10C26,7.348 24.946,4.804 23.071,2.929C21.196,1.054 18.652,0 16,0C13.348,0 10.804,1.054 8.929,2.929C7.054,4.804 6,7.348 6,10L6,14C4.409,14 2.883,14.632 1.757,15.757C0.632,16.883 0,18.409 0,20L0,34C0,35.591 0.632,37.117 1.757,38.243C2.883,39.368 4.409,40 6,40L26,40C27.591,40 29.117,39.368 30.243,38.243C31.368,37.117 32,35.591 32,34L32,20C32,18.409 31.368,16.883 30.243,15.757C29.117,14.632 27.591,14 26,14ZM10,10C10,8.409 10.632,6.883 11.757,5.757C12.883,4.632 14.409,4 16,4C17.591,4 19.117,4.632 20.243,5.757C21.368,6.883 22,8.409 22,10L22,14L10,14L10,10ZM28,34C28,34.53 27.789,35.039 27.414,35.414C27.039,35.789 26.53,36 26,36L6,36C5.47,36 4.961,35.789 4.586,35.414C4.211,35.039 4,34.53 4,34L4,20C4,19.47 4.211,18.961 4.586,18.586C4.961,18.211 5.47,18 6,18L26,18C26.53,18 27.039,18.211 27.414,18.586C27.789,18.961 28,19.47 28,20L28,34Z" fill="#000000"/>
</svg>
