<svg width="40" height="32" viewBox="0 0 40 32" fill="none" xmlns="http://www.w3.org/2000/svg" xmlns:xlink="http://www.w3.org/1999/xlink">
<path d="M4,32C2.9,32 1.959,31.609 1.176,30.826C0.393,30.043 0.001,29.101 0,28L0,4C0,2.9 0.392,1.959 1.176,1.176C1.96,0.393 2.901,0.001 4,0L36,0C37.1,0 38.042,0.392 38.826,1.176C39.61,1.96 40.001,2.901 40,4L40,28C40,29.1 39.609,30.042 38.826,30.826C38.043,31.61 37.101,32.001 36,32L4,32ZM20,18L4,8L4,28L36,28L36,8L20,18ZM20,14L36,4L4,4L20,14ZM4,8L4,4L4,28L4,8Z" fill="#000000"/>
</svg>
